<svg width="70" height="70" viewBox="0 0 70 70" fill="none" xmlns="http://www.w3.org/2000/svg">
                    <path d="M42.3828 38.5547V34.1797H40.981C44.4359 32.1295 46.7578 28.3629 46.7578 24.0625V21.2715C47.1684 21.4821 47.6328 21.6016 48.125 21.6016C49.7835 21.6016 51.1328 20.2523 51.1328 18.5938C51.1328 16.9352 49.7835 15.5859 48.125 15.5859C47.6328 15.5859 47.1684 15.7054 46.7578 15.916V9.205C48.678 8.44129 50.0391 6.56414 50.0391 4.375V0H28.4375C25.5728 0 23.2422 2.33064 23.2422 5.19531V15.916C22.8316 15.7054 22.3672 15.5859 21.875 15.5859C20.2165 15.5859 18.8672 16.9352 18.8672 18.5938C18.8672 20.2523 20.2165 21.6016 21.875 21.6016C22.3672 21.6016 22.8316 21.4821 23.2422 21.2715V24.0625C23.2422 28.3629 25.5642 32.1295 29.019 34.1797H27.6172V38.5547H14.4922V70H55.5078V38.5547H42.3828ZM21.875 19.9609C21.1211 19.9609 20.5078 19.3476 20.5078 18.5938C20.5078 17.8399 21.1211 17.2266 21.875 17.2266C22.6289 17.2266 23.2422 17.8399 23.2422 18.5938C23.2422 19.3476 22.6289 19.9609 21.875 19.9609ZM45.1172 13.3321L41.3554 9.57031H44.8438C44.9356 9.57031 45.0265 9.56785 45.1172 9.5632V13.3321ZM48.125 17.2266C48.8789 17.2266 49.4922 17.8399 49.4922 18.5938C49.4922 19.3476 48.8789 19.9609 48.125 19.9609C47.3711 19.9609 46.7578 19.3476 46.7578 18.5938C46.7578 17.8399 47.3711 17.2266 48.125 17.2266ZM24.8828 5.19531C24.8828 3.23531 26.4775 1.64062 28.4375 1.64062H48.3984V4.375C48.3984 6.335 46.8039 7.92969 44.8438 7.92969H24.8828V5.19531ZM24.8828 9.57031H28.6446L24.8828 13.3321V9.57031ZM24.8828 24.0625V15.6522L30.9647 9.57031H39.0353L45.1172 15.6522V24.0625C45.1172 29.6412 40.5787 34.1797 35 34.1797C29.4213 34.1797 24.8828 29.6412 24.8828 24.0625ZM40.7422 35.8203V38.5547H38.0078V35.8203H40.7422ZM36.3672 35.8203V38.5547H33.6328V35.8203H36.3672ZM31.9922 35.8203V38.5547H29.2578V35.8203H31.9922ZM41.7696 40.1953L35 46.9649L28.2304 40.1953H41.7696ZM39.6484 53.3203V54.9609H35.8203V62.6172H34.1797V54.9609H30.3516V53.3203H34.1797V48.9453H35.8203V53.3203H39.6484ZM53.8672 68.3594H48.9453V45.9375H47.3047V68.3594H22.6953V45.9375H21.0547V68.3594H16.1328V40.1953H25.9103L33.0196 47.3047H32.5391V51.6797H28.7109V56.6016H32.5391V64.2578H37.4609V56.6016H41.2891V51.6797H37.4609V47.3047H36.9804L44.0897 40.1953H53.8672V68.3594Z" fill="#1C2647"></path>
                  </svg>