<svg width="90" height="90" viewBox="0 0 90 90" fill="none" xmlns="http://www.w3.org/2000/svg">
                    <path d="M85.4297 72.1766V23.6609H88.2422V15.9266H69.2578V23.6609H72.0703V32.8016H68.5547V27.1766H62.1942L45 15.7139L27.8058 27.1767H21.4453V32.8017H17.9297V23.6611H20.7422V15.9267H1.75781V23.6611H4.57031V72.1767H0V74.2861H90V72.1767H85.4297V72.1766ZM3.86719 21.5516V18.0359H18.6328V21.5516H3.86719ZM15.8203 72.1766H6.67969V29.2859H15.8203V72.1766ZM15.8203 27.1766H6.67969V23.6609H15.8203V27.1766ZM21.4453 72.1766H17.9297V63.0359H21.4453V72.1766ZM21.4453 60.9266H17.9297V34.9109H21.4453V60.9266ZM34.8047 25.0457L38.3203 22.7019V38.4266H34.8047V25.0457ZM29.1797 28.7957L32.6953 26.452V38.4266H29.1797V28.7957ZM23.5547 29.2859H27.0703V38.4266H23.5547V29.2859ZM27.0703 72.1766H23.5547V65.8484H27.0703V72.1766ZM27.0703 63.7391H23.5547V46.1609H27.0703V63.7391ZM32.6953 72.1766H29.1797V65.8484H32.6953V72.1766ZM32.6953 63.7391H29.1797V46.1609H32.6953V63.7391ZM38.3203 72.1766H34.8047V65.8484H38.3203V72.1766ZM38.3203 63.7391H34.8047V46.1609H38.3203V63.7391ZM43.9453 72.1766H40.4297V65.8484H43.9453V72.1766ZM43.9453 63.7391H40.4297V46.1609H43.9453V63.7391ZM43.9453 44.0516H23.5547V40.5359H43.9453V44.0516ZM43.9453 38.4266H40.4297V21.2958L43.9453 18.9521V38.4266ZM57.3047 26.452L60.8203 28.7957V38.4266H57.3047V26.452ZM51.6797 22.7021L55.1953 25.0459V38.4267H51.6797V22.7021ZM46.0547 18.9519L49.5703 21.2956V38.4266H46.0547V18.9519ZM49.5703 72.1766H46.0547V65.8484H49.5703V72.1766ZM49.5703 63.7391H46.0547V46.1609H49.5703V63.7391ZM55.1953 72.1766H51.6797V65.8484H55.1953V72.1766ZM55.1953 63.7391H51.6797V46.1609H55.1953V63.7391ZM60.8203 72.1766H57.3047V65.8484H60.8203V72.1766ZM60.8203 63.7391H57.3047V46.1609H60.8203V63.7391ZM66.4453 72.1766H62.9297V65.8484H66.4453V72.1766ZM66.4453 63.7391H62.9297V46.1609H66.4453V63.7391ZM66.4453 44.0516H46.0547V40.5359H66.4453V44.0516ZM66.4453 38.4266H62.9297V29.2859H66.4453V38.4266ZM72.0703 72.1766H68.5547V63.0359H72.0703V72.1766ZM72.0703 60.9266H68.5547V34.9109H72.0703V60.9266ZM71.3672 21.5516V18.0359H86.1328V21.5516H71.3672ZM83.3203 72.1766H74.1797V29.2859H83.3203V72.1766ZM83.3203 27.1766H74.1797V23.6609H83.3203V27.1766Z" fill="#1C2647"></path>
                  </svg>