<svg width="90" height="90" viewBox="0 0 90 90" fill="none" xmlns="http://www.w3.org/2000/svg">
                    <path d="M85.4297 76.5076V49.0002L77.7806 41.3511H60.1172V33.702L62.9297 36.5145L68.6399 30.8042L45 7.16431L21.3601 30.8044L27.0703 36.5147L29.8828 33.7022V41.3513H12.2194L4.57031 49.0002V76.5074H0V82.8355H90V76.5074H85.4297V76.5076ZM76.9069 43.4607L81.8288 48.3825H60.1172V43.4607H76.9069ZM83.3203 50.4919V76.5076H60.1172V50.4919H83.3203ZM27.0703 33.5315L24.3431 30.8042L45 10.1475L65.6569 30.8044L62.9297 33.5315L45 15.6018L27.0703 33.5315ZM45 56.8201C40.5415 56.8201 36.9141 60.4475 36.9141 64.906V76.5076H31.9922V31.5928L45 18.585L58.0078 31.5928V76.5076H53.0859V64.906C53.0859 60.4473 49.4585 56.8201 45 56.8201ZM50.9766 64.906V76.5076H39.0234V64.906C39.0234 61.6104 41.7045 58.9294 45 58.9294C48.2955 58.9294 50.9766 61.6104 50.9766 64.906ZM13.0931 43.4607H29.8828V48.3825H8.17119L13.0931 43.4607ZM6.67969 50.4919H29.8828V76.5076H6.67969V50.4919ZM87.8906 80.7263H2.10938V78.6169H87.8906V80.7263Z" fill="#1C2647"></path>
                    <path d="M53.0859 35.0232H48.1641V30.1013H41.8359V35.0232H36.9141V41.3513H41.8359V49.0857H48.1641V41.3513H53.0859V35.0232ZM50.9766 39.242H46.0547V46.9763H43.9453V39.242H39.0234V37.1326H43.9453V32.2107H46.0547V37.1326H50.9766V39.242Z" fill="#1C2647"></path>
                    <path d="M18.2812 55.4138C14.5981 55.4138 11.6016 58.4104 11.6016 62.0935V71.5857H24.9609V62.0935C24.9609 58.4104 21.9644 55.4138 18.2812 55.4138ZM17.2266 69.4763H13.7109V64.5544H17.2266V69.4763ZM17.2266 62.4451H13.7109V62.0935C13.7109 59.9363 15.2135 58.1249 17.2266 57.6473V62.4451ZM22.8516 69.4763H19.3359V64.5544H22.8516V69.4763ZM22.8516 62.4451H19.3359V57.6473C21.349 58.1249 22.8516 59.9363 22.8516 62.0935V62.4451Z" fill="#1C2647"></path>
                    <path d="M78.3984 62.0935C78.3984 58.4104 75.4019 55.4138 71.7188 55.4138C68.0356 55.4138 65.0391 58.4104 65.0391 62.0935V71.5857H78.3984V62.0935ZM70.6641 69.4763H67.1484V64.5544H70.6641V69.4763ZM70.6641 62.4451H67.1484V62.0935C67.1484 59.9363 68.651 58.1249 70.6641 57.6473V62.4451ZM76.2891 69.4763H72.7734V64.5544H76.2891V69.4763ZM76.2891 62.4451H72.7734V57.6473C74.7865 58.1249 76.2891 59.9363 76.2891 62.0935V62.4451Z" fill="#1C2647"></path>
                  </svg>