<svg width="90" height="90" viewBox="0 0 90 90" fill="none" xmlns="http://www.w3.org/2000/svg">
                    <g clip-path="url(#clip0)">
                      <path d="M32.429 65.0881L20.1243 52.7834H9.49219V49.9709H0V74.5803H9.49219V71.7678H13.6257L22.0632 80.2053H43.2422V69.6584H27.8587L32.429 65.0881ZM7.38281 72.4709H2.10938V52.0803H7.38281V72.4709ZM41.1328 71.7678V78.0959H22.9368L14.4993 69.6584H9.49219V54.8928H19.2507L29.446 65.0881L25.3125 69.2216L19.0269 62.9362L17.5354 64.4275L24.8755 71.7678H41.1328Z" fill="#1C2647"></path>
                      <path d="M80.5078 49.9709V52.7834H69.8757L57.571 65.0881L62.1413 69.6584H46.7578V80.2053H67.9368L76.3743 71.7678H80.5078V74.5803H90V49.9709H80.5078ZM80.5078 69.6584H75.5007L67.0632 78.0959H48.8672V71.7678H65.1243L72.4644 64.4275L70.9729 62.9362L64.6875 69.2216L60.5542 65.0881L70.7495 54.8928H80.5078V69.6584ZM87.8906 72.4709H82.6172V52.0803H87.8906V72.4709Z" fill="#1C2647"></path>
                      <path d="M39.375 66.1427C41.1418 66.1427 42.6345 64.9514 43.0947 63.3302H54.4922V51.9329C56.1134 51.4725 57.3047 49.9798 57.3047 48.213V39.1636L47.4609 33.5386V29.4961C50.6447 28.9888 53.0859 26.2248 53.0859 22.9005C53.0859 19.5615 47.8689 11.9122 47.2739 11.0511L46.4062 9.79492L45.5386 11.0511C44.9437 11.9124 39.7266 19.5615 39.7266 22.9005C39.7266 26.2247 42.1678 28.9888 45.3516 29.4961V32.3331L35.5078 26.7081V62.2755C35.5078 64.4079 37.2426 66.1427 39.375 66.1427ZM42.5398 25.3329C42.0947 24.6279 41.8359 23.7941 41.8359 22.9005C41.8359 21.14 44.3646 16.6794 46.4062 13.5454C48.4479 16.6794 50.9766 21.14 50.9766 22.9005C50.9766 23.794 50.7178 24.6279 50.2727 25.3329C50.2573 23.2137 48.5292 21.4942 46.4062 21.4942C44.2835 21.4942 42.5552 23.2137 42.5398 25.3329ZM44.6484 25.3614C44.6484 24.3921 45.437 23.6036 46.4062 23.6036C47.3755 23.6036 48.1641 24.3921 48.1641 25.3614C48.1641 26.3307 47.3755 27.1192 46.4062 27.1192C45.437 27.1192 44.6484 26.3307 44.6484 25.3614ZM37.6172 30.3429L55.1953 40.3875V48.213C55.1953 49.1822 54.4068 49.9708 53.4375 49.9708C52.4682 49.9708 51.6797 49.1822 51.6797 48.213V41.1817H49.5703V48.213C49.5703 49.9798 50.7616 51.4725 52.3828 51.9329V61.2208H43.2422V53.838H41.1328V62.2755C41.1328 63.2447 40.3443 64.0333 39.375 64.0333C38.4057 64.0333 37.6172 63.2447 37.6172 62.2755V30.3429Z" fill="#1C2647"></path>
                    </g>
                    <defs>
                      <clipPath id="clip0">
                        <rect width="90" height="90" fill="white"></rect>
                      </clipPath>
                    </defs>
                  </svg>